<svg xmlns="http://www.w3.org/2000/svg" xmlns:xlink="http://www.w3.org/1999/xlink" version="1.1" x="0px" y="0px" viewBox="0 0 100 125" style="enable-background:new 0 0 100 100;" xml:space="preserve"><g><path d="M84.953,68.629V100H71.109V66.901h-4.247c0,0,0,33.099-0.005,33.099h-33.72V66.901h-4.247V100H15.047V68.629   c0-13.479,10.925-24.405,24.403-24.405l21.196,0.005C74.125,44.229,84.953,55.15,84.953,68.629z M49.998,0   C38.598,0,29.356,9.24,29.356,20.641c0,11.399,9.242,20.641,20.641,20.641c11.399,0,20.641-9.241,20.641-20.641   C70.639,9.24,61.396,0,49.998,0z"/></g><text x="0" y="115" fill="#000000" font-size="5px" font-weight="bold" font-family="'Helvetica Neue', Helvetica, Arial-Unicode, Arial, Sans-serif">Created by b farias</text><text x="0" y="120" fill="#000000" font-size="5px" font-weight="bold" font-family="'Helvetica Neue', Helvetica, Arial-Unicode, Arial, Sans-serif">from the Noun Project</text></svg>