<?xml version="1.0" encoding="UTF-8"?>
<svg id="Layer_2" data-name="Layer 2" xmlns="http://www.w3.org/2000/svg" viewBox="0 0 1410.44 251.68">
  <defs>
    <style>
      .cls-1 {
        fill: #fff;
        stroke-width: 0px;
      }
    </style>
  </defs>
  <g id="Layer_1-2" data-name="Layer 1">
    <g>
      <path class="cls-1" d="M1178.33,80.95v142.32l232.1,23.74V51l-232.1,29.94ZM1283.6,199.52h-67.91v-94.82h28.14v71.28h39.77v23.54ZM1347.17,169.56v29.96h-28.14v-29.29l-34.77-65.54h28.14l20.69,38.68,20.19-38.68h28.12l-34.23,64.87Z"/>
      <path class="cls-1" d="M194.44,78.19c-8.15-10-17.92-17.86-29.32-23.56-11.41-5.7-22.81-8.55-34.21-8.55-10.47,0-20.19,1.98-29.15,5.94-8.96,3.96-16.88,9.48-23.74,16.58-6.87,7.1-12.16,15.42-15.88,24.96-3.73,9.55-5.59,19.9-5.59,31.07s1.86,21.18,5.59,30.72c3.72,9.55,9.02,17.86,15.88,24.96,6.86,7.1,14.78,12.69,23.74,16.76,8.95,4.07,18.68,6.11,29.15,6.11,11.17,0,22.34-2.62,33.51-7.85,11.17-5.24,21.17-12.27,30.02-21.12l32.46,33.86c-8.61,8.85-18.33,16.53-29.15,23.04-10.82,6.52-22.17,11.58-34.03,15.18-11.87,3.61-23.74,5.41-35.61,5.41-18.39,0-35.32-3.2-50.79-9.6-15.48-6.4-28.97-15.36-40.49-26.88-11.52-11.52-20.54-24.96-27.05-40.32C3.26,159.53,0,142.89,0,124.97s3.26-34.09,9.77-49.22c6.51-15.12,15.71-28.39,27.58-39.79,11.87-11.4,25.66-20.25,41.37-26.53C94.43,3.14,111.59,0,130.21,0c11.87,0,23.68,1.63,35.43,4.89,11.75,3.26,22.8,7.85,33.16,13.79,10.35,5.94,19.6,13.21,27.75,21.82l-32.11,37.7Z"/>
      <path class="cls-1" d="M323.59,166.51c-10.24,0-17.92,1.74-23.04,5.24-5.12,3.49-7.68,9.08-7.68,16.76s2.62,13.32,7.85,17.63c5.24,4.31,12.39,6.46,21.47,6.46,7.91,0,14.95-1.34,21.12-4.01,6.16-2.67,11.29-6.28,15.36-10.82,4.06-4.54,6.57-9.83,7.5-15.88l8.03,30.02c-5.36,12.57-13.73,22.11-25.14,28.62-11.4,6.52-25.36,9.77-41.89,9.77-13.26,0-24.73-2.56-34.38-7.68-9.66-5.12-17.11-12.1-22.34-20.94-5.24-8.84-7.85-18.85-7.85-30.02,0-17.45,6.16-31.18,18.5-41.19,12.33-10,30.02-15.12,53.06-15.36h57.25v31.42h-47.83ZM365.83,131.6c0-10.24-3.32-18.27-9.95-24.09-6.63-5.81-16.36-8.73-29.15-8.73-8.37,0-17.34,1.46-26.88,4.36-9.55,2.91-19.2,7.04-28.97,12.39l-16.76-34.91c9.3-4.89,18.38-8.95,27.23-12.22,8.84-3.26,17.92-5.76,27.23-7.5,9.31-1.74,19.43-2.62,30.37-2.62,25.36,0,44.91,5.94,58.64,17.8,13.73,11.87,20.71,28.28,20.95,49.22l.35,122.53h-52.71l-.35-116.24Z"/>
      <path class="cls-1" d="M465.32,60.39h53.76v187.45h-53.76V60.39ZM581.21,106.82c-12.57-1.16-23.56.35-32.99,4.54-9.43,4.19-16.64,10.24-21.64,18.15-5.01,7.91-7.5,17.34-7.5,28.28l-13.61-2.44c0-20.48,3.08-37.93,9.25-52.36,6.16-14.43,14.95-25.48,26.35-33.16,11.4-7.68,24.79-11.52,40.14-11.52v48.52Z"/>
      <path class="cls-1" d="M733.06,138.93c-.23-8.61-2.04-16-5.41-22.17-3.38-6.16-8.2-11-14.49-14.49-6.28-3.49-13.5-5.24-21.64-5.24-9.08,0-16.99,2.33-23.74,6.98-6.75,4.66-11.99,11.06-15.71,19.2-3.73,8.15-5.59,17.57-5.59,28.27,0,12.1,2.09,22.46,6.28,31.07,4.19,8.61,10.12,15.25,17.8,19.9,7.68,4.66,16.52,6.98,26.53,6.98,18.15,0,33.97-6.75,47.47-20.25l28.27,27.93c-9.31,10.47-20.77,18.5-34.38,24.09-13.61,5.59-28.92,8.38-45.9,8.38-20.02,0-37.35-3.95-52.01-11.87-14.66-7.91-26.01-19.03-34.03-33.34-8.03-14.31-12.04-30.89-12.04-49.74s4.07-36.13,12.22-50.44c8.15-14.31,19.49-25.42,34.03-33.34,14.54-7.91,31.36-11.98,50.44-12.22,22.11,0,40.2,4.6,54.28,13.79,14.08,9.2,24.31,22.11,30.72,38.75,6.4,16.64,8.78,36.36,7.16,59.17h-144.52v-31.42h94.25Z"/>
      <path class="cls-1" d="M941.46,138.93c-.23-8.61-2.04-16-5.41-22.17-3.38-6.16-8.2-11-14.49-14.49-6.28-3.49-13.5-5.24-21.64-5.24-9.08,0-16.99,2.33-23.74,6.98-6.75,4.66-11.99,11.06-15.71,19.2-3.73,8.15-5.59,17.57-5.59,28.27,0,12.1,2.09,22.46,6.28,31.07,4.19,8.61,10.12,15.25,17.8,19.9,7.68,4.66,16.52,6.98,26.53,6.98,18.15,0,33.97-6.75,47.47-20.25l28.27,27.93c-9.31,10.47-20.77,18.5-34.38,24.09-13.61,5.59-28.92,8.38-45.9,8.38-20.02,0-37.35-3.95-52.01-11.87-14.66-7.91-26.01-19.03-34.03-33.34s-12.04-30.89-12.04-49.74,4.07-36.13,12.22-50.44c8.15-14.31,19.49-25.42,34.03-33.34,14.54-7.91,31.36-11.98,50.44-12.22,22.11,0,40.2,4.6,54.28,13.79,14.08,9.2,24.31,22.11,30.72,38.75,6.4,16.64,8.78,36.36,7.16,59.17h-144.52v-31.42h94.25Z"/>
      <path class="cls-1" d="M1027.33,60.39h53.76v187.45h-53.76V60.39ZM1143.22,106.82c-12.57-1.16-23.56.35-32.99,4.54-9.43,4.19-16.64,10.24-21.64,18.15-5.01,7.91-7.5,17.34-7.5,28.28l-13.61-2.44c0-20.48,3.08-37.93,9.25-52.36,6.16-14.43,14.95-25.48,26.35-33.16,11.4-7.68,24.79-11.52,40.14-11.52v48.52Z"/>
    </g>
  </g>
</svg>